<svg xmlns="http://www.w3.org/2000/svg" xml:space="preserve" width="6.82666in" height="6.82666in" style="shape-rendering:geometricPrecision; text-rendering:geometricPrecision; image-rendering:optimizeQuality; fill-rule:evenodd; clip-rule:evenodd" viewBox="0 0 6.82666 6.82666" xmlns:xlink="http://www.w3.org/1999/xlink">
 <defs>
  <style type="text/css">
   
    .fil1 {fill:none}
    .fil0 {fill:black;fill-rule:nonzero}
   
  </style>
 </defs>
 <g id="Layer_x0020_1">
  <metadata id="CorelCorpID_0Corel-Layer"></metadata>
  <g id="_294270304">
   <path id="_294270352" class="fil0" d="M2.14 1.77687l1.38667 0c0.132055,0 0.252071,0.0539882 0.339043,0.140957 0.0869685,0.0869724 0.140957,0.206988 0.140957,0.339043l0 3.23641c0,0.132055 -0.0539882,0.252071 -0.140957,0.339039 -0.0869724,0.0869685 -0.206988,0.140957 -0.339043,0.140957l-1.38667 0c-0.132055,0 -0.252071,-0.0539882 -0.339043,-0.140957 -0.0869685,-0.0869685 -0.140957,-0.206984 -0.140957,-0.339039l0 -3.23641c0,-0.132055 0.0539882,-0.252071 0.140957,-0.339043 0.0869724,-0.0869685 0.206988,-0.140957 0.339043,-0.140957zm1.38667 0.106669l-1.38667 0c-0.10261,0 -0.195937,0.0420197 -0.263626,0.109705 -0.067685,0.067689 -0.109705,0.161016 -0.109705,0.263626l0 3.23641c0,0.10261 0.0420197,0.195937 0.109705,0.263622 0.067689,0.067685 0.161016,0.109705 0.263626,0.109705l1.38667 0c0.10261,0 0.195937,-0.0420197 0.263626,-0.109705 0.067685,-0.067685 0.109705,-0.161012 0.109705,-0.263622l0 -3.23641c0,-0.10261 -0.0420197,-0.195937 -0.109705,-0.263626 -0.067689,-0.067685 -0.161016,-0.109705 -0.263626,-0.109705z" style="fill: rgb(224, 168, 0);"></path>
   <path id="_294269872" class="fil0" d="M3.56178 2.06232c0.0594449,0 0.113142,0.0255276 0.151886,0.0667874 0.0379606,0.0404331 0.0614488,0.0959567 0.0614488,0.156953 0,0.0609961 -0.0234882,0.11652 -0.0614488,0.156953 -0.0387402,0.0412598 -0.0924331,0.0667874 -0.151886,0.0667874 -0.0594528,0 -0.113146,-0.0255276 -0.151886,-0.0667874 -0.0379606,-0.0404331 -0.0614488,-0.0959567 -0.0614488,-0.156953 0,-0.0609961 0.0234882,-0.11652 0.0614488,-0.156953 0.0387441,-0.0412598 0.0924409,-0.0667874 0.151886,-0.0667874zm0.0743898 0.139701c-0.0191614,-0.0204055 -0.0454803,-0.0330315 -0.0743898,-0.0330315 -0.0289094,0 -0.0552283,0.012626 -0.0743898,0.0330315 -0.019937,0.0212362 -0.0322756,0.0509331 -0.0322756,0.0840394 0,0.0331102 0.0123386,0.0628031 0.0322756,0.0840394 0.0191575,0.0204055 0.0454724,0.0330315 0.0743898,0.0330315 0.0289173,0 0.0552323,-0.012626 0.0743898,-0.0330315 0.019937,-0.0212362 0.0322756,-0.0509291 0.0322756,-0.0840394 0,-0.0331063 -0.0123386,-0.0628031 -0.0322756,-0.0840394z" style="fill: rgb(224, 168, 0);"></path>
   <path id="_294269752" class="fil0" d="M3.5099 2.27419c-0.00655512,0.0286457 0.0113543,0.0571929 0.04,0.063748 0.0286457,0.00655512 0.0571929,-0.0113543 0.063748,-0.04 0.144323,-0.628618 0.364807,-1.01882 0.592827,-1.20704 0.0997087,-0.0823031 0.199866,-0.124701 0.294311,-0.130398 0.0921102,-0.00555906 0.180154,0.0240709 0.257976,0.0857992 0.13202,0.104717 0.235539,0.300134 0.283657,0.572937 0.0188543,0.10689 0.0288937,0.264996 -0.00176378,0.412028 -0.0218346,0.104724 -0.0643268,0.203425 -0.139291,0.27161 -0.0739213,0.0672362 -0.182091,0.106165 -0.337437,0.0936969 -0.150106,-0.0120472 -0.333657,-0.0677087 -0.577787,-0.193642 -0.0261181,-0.0134606 -0.0582047,-0.00320079 -0.0716654,0.0229173 -0.0134606,0.0261181 -0.00320079,0.0582047 0.0229173,0.0716654 0.257823,0.132996 0.454984,0.192213 0.618205,0.205311 0.188327,0.0151181 0.322752,-0.0350827 0.417437,-0.121201 0.0936417,-0.0851732 0.145807,-0.204075 0.171787,-0.328689 0.0339055,-0.162618 0.0231339,-0.335602 0.00259843,-0.452028 -0.0528543,-0.299669 -0.170661,-0.517575 -0.322406,-0.637937 -0.0987835,-0.0783504 -0.211555,-0.115898 -0.33048,-0.10872 -0.116587,0.0070315 -0.237717,0.0573031 -0.355555,0.154571 -0.244531,0.201846 -0.479043,0.611866 -0.629079,1.26537z" style="fill: rgb(224, 168, 0);"></path>
   <path id="_294269800" class="fil0" d="M2.56156 4.53977c0,-0.0149606 0.00616535,-0.0284803 0.0160866,-0.0381654l0.0931339 -0.102091 0 -0.420378c-0.124024,0.0436457 -0.340118,0.206311 -0.452594,0.290567 -0.0449646,0.0338386 -0.104618,-0.016626 -0.0797913,-0.0664488 0.109161,-0.282469 0.455925,-0.527598 0.550161,-0.59026 0.00981102,-0.284339 0.0319803,-0.468374 0.0582205,-0.552465 0.0180236,-0.0577559 0.0463268,-0.0864843 0.0830709,-0.0863268 0.0362244,0.000153543 0.0644803,0.028878 0.0830197,0.0860315 0.0274409,0.0845984 0.0519213,0.26948 0.0649567,0.552559 0.0943622,0.0627087 0.445484,0.310669 0.552488,0.59563 0.0206575,0.051248 -0.0437638,0.0958189 -0.0854685,0.0582756 -0.0364606,-0.0272913 -0.32489,-0.241693 -0.448941,-0.286783l0 0.419598 0.0952874 0.104311c0.00933071,0.0102283 0.013937,0.0231063 0.0139331,0.0359449l0 0.183051c0,0.0294528 -0.0238819,0.0533346 -0.0533346,0.0533346 -0.0129961,0 -0.0249055,-0.00465354 -0.0341614,-0.0123819 -0.0526969,-0.0377874 -0.118315,-0.056689 -0.184287,-0.056689 -0.0670748,0 -0.133776,0.0195354 -0.186909,0.0585945 -0.0240118,0.0178465 -0.0567953,0.0127992 -0.0744921,-0.011252 -0.00687795,-0.00934252 -0.0102638,-0.0201969 -0.0103701,-0.0309724 -0.000476378,-0.0611535 -7.87402e-006,-0.122508 -7.87402e-006,-0.183685zm0.106669 0.0205315l0 0.0721969c0.0522047,-0.0213858 0.108732,-0.0320827 0.16511,-0.0320827 0.056378,0 0.112909,0.0106969 0.165114,0.0320827l0 -0.0721969 -0.0931339 -0.102091c-0.00992126,-0.00968504 -0.0160866,-0.0232047 -0.0160866,-0.0381654l0 -0.478894c0,-0.0327677 0.0144173,-0.0547008 0.0408622,-0.067374 0.0177402,-0.00848819 0.0385827,-0.00988189 0.0618228,-0.00540157 0.0679646,0.013126 0.197614,0.0918228 0.310512,0.167409 -0.154102,-0.185783 -0.371843,-0.327315 -0.401421,-0.346126 -0.0161929,-0.0085748 -0.0275433,-0.0252717 -0.028374,-0.0448976 -0.00603543,-0.152398 -0.0149764,-0.321693 -0.0421575,-0.471941 -0.0164606,0.0979055 -0.0297283,0.253232 -0.0364488,0.466862 0.000968504,0.0186772 -0.00793307,0.0373228 -0.0248976,0.0479764 -0.0218425,0.0131378 -0.0437598,0.0285551 -0.0645669,0.0432087 -0.0826535,0.0582087 -0.22865,0.170134 -0.340772,0.305476 0.121362,-0.0810276 0.262752,-0.165902 0.328346,-0.17028 0.0474055,-0.00320079 0.085311,0.026315 0.085311,0.0750866l0 0.478894c3.93701e-006,0.0128386 -0.00460236,0.0257165 -0.0139331,0.0359449l-0.0952874 0.104311z" style="fill: rgb(224, 168, 0);"></path>
  </g>
 </g>
 <rect class="fil1" width="6.82666" height="6.82666" id="id_102"></rect>
</svg>